<svg width="44" height="22" viewBox="0 0 44 22" fill="none" xmlns="http://www.w3.org/2000/svg">
<g clip-path="url(#clip0)">
<path d="M40.7173 13.18C40.6989 13.0854 40.657 12.997 40.5956 12.9227C39.6778 12.4047 38.7635 11.8798 37.8144 11.4C34.9323 9.96072 32.0399 8.54229 29.1474 7.12386C28.3999 6.75534 27.6351 6.42855 26.8876 6.05656C26.6927 5.9555 26.5283 5.80429 26.4113 5.61851C26.3776 5.54488 26.3601 5.46484 26.3601 5.38384C26.3601 5.30285 26.3776 5.22281 26.4113 5.14918C26.4961 5.01314 26.6289 4.91388 26.7833 4.87105C26.9442 4.83146 27.1131 4.8387 27.27 4.89191C27.6907 5.03097 28.1079 5.18742 28.5146 5.36472C32.6865 7.18296 36.7958 9.16459 40.8425 11.254C41.5378 11.6016 42.1949 12.0223 42.8519 12.436C43.0129 12.5499 43.1296 12.716 43.1821 12.9061C43.2347 13.0961 43.22 13.2985 43.1405 13.479C43.058 13.7468 42.9082 13.989 42.7056 14.1825C42.5029 14.376 42.2541 14.5144 41.9828 14.5845C41.0337 14.8001 40.2445 15.3111 39.4379 15.7944C37.9117 16.7087 36.3647 17.5813 34.8593 18.5269C33.354 19.4726 31.9877 20.4286 30.5519 21.3777C30.2279 21.5895 29.8925 21.7833 29.5472 21.9583C29.413 21.9945 29.2704 21.9831 29.1436 21.9261C29.0168 21.8691 28.9138 21.7699 28.8519 21.6454C28.8064 21.5434 28.792 21.4303 28.8105 21.3202C28.8291 21.2101 28.8798 21.108 28.9562 21.0266C29.0546 20.8945 29.1717 20.7774 29.3038 20.6789C31.0421 19.3891 32.7352 18.0333 34.6125 16.9312C36.622 15.7492 38.6071 14.5219 40.5991 13.3086C40.6468 13.2741 40.687 13.2304 40.7173 13.18V13.18Z" fill="#3D7CFF"/>
<path d="M17.5775 13.9901L12.5921 14.223C9.5397 14.3725 6.48034 14.3377 3.43141 14.6402C2.59949 14.6973 1.76522 14.7124 0.931773 14.6854C0.711197 14.6875 0.492832 14.6412 0.292079 14.5498C0.161445 14.457 0.0668742 14.3219 0.0243778 14.1674C0.00669143 14.0586 0.0237164 13.947 0.0730121 13.8484C0.122308 13.7498 0.201386 13.6692 0.299039 13.6181C0.511722 13.5584 0.729276 13.5177 0.949151 13.4964C3.38273 13.3608 5.81632 13.2217 8.27076 13.1001C10.381 12.9958 12.4913 12.9401 14.5981 12.8046C16.4858 12.6864 18.3666 12.5716 20.2579 12.5716C21.9962 12.5716 23.7031 12.516 25.4275 12.4812C26.6513 12.4534 27.8611 12.3769 29.0918 12.3943C30.8683 12.4221 32.6448 12.5125 34.4213 12.589C34.5859 12.6127 34.7449 12.6657 34.8907 12.7455C35.0024 12.8269 35.0886 12.9385 35.1391 13.0672C35.1896 13.1959 35.2023 13.3364 35.1758 13.4721C35.1601 13.5826 35.1111 13.6857 35.0353 13.7677C34.9595 13.8497 34.8606 13.9066 34.7516 13.931C34.48 13.9808 34.2037 14.0006 33.9277 13.9901C30.983 13.7849 28.0384 13.8997 25.0938 13.9101C22.5941 13.9101 20.091 13.9101 17.5914 13.9101V13.9727L17.5775 13.9901Z" fill="#3D7CFF"/>
</g>
<defs>
<clipPath id="clip0">
<rect width="43.7143" height="22" fill="white"/>
</clipPath>
</defs>
</svg>
