<svg width="51" height="20" viewBox="0 0 51 20" fill="none" xmlns="http://www.w3.org/2000/svg">
<g clip-path="url(#clip0)">
<path d="M47.5035 9.71001C47.482 9.59968 47.4332 9.4965 47.3615 9.40987C46.2908 8.80553 45.224 8.19307 44.1168 7.63335C40.7544 5.95418 37.3798 4.29934 34.0052 2.64451C33.1332 2.21458 32.2409 1.83331 31.3688 1.39932C31.1415 1.28143 30.9497 1.10501 30.8132 0.888272C30.7738 0.802371 30.7534 0.708987 30.7534 0.614492C30.7534 0.519998 30.7738 0.426617 30.8132 0.340716C30.9121 0.182003 31.067 0.0662025 31.2472 0.0162372C31.4349 -0.029948 31.6319 -0.0215022 31.815 0.0405752C32.3058 0.202814 32.7925 0.38533 33.267 0.592184C38.1342 2.71346 42.9284 5.02536 47.6495 7.463C48.4607 7.8686 49.2273 8.35937 49.9939 8.84203C50.1817 8.97494 50.3178 9.16867 50.3791 9.39041C50.4405 9.61216 50.4233 9.84829 50.3305 10.0588C50.2343 10.3712 50.0596 10.6538 49.8232 10.8796C49.5867 11.1054 49.2964 11.2668 48.9799 11.3486C47.8726 11.6001 46.9519 12.1963 46.0109 12.7601C44.2303 13.8268 42.4254 14.8449 40.6692 15.9481C38.913 17.0513 37.3189 18.1667 35.6438 19.274C35.2658 19.5211 34.8745 19.7472 34.4717 19.9513C34.3151 19.9936 34.1487 19.9803 34.0008 19.9138C33.8529 19.8472 33.7327 19.7315 33.6605 19.5863C33.6074 19.4674 33.5906 19.3354 33.6123 19.2069C33.6339 19.0785 33.693 18.9593 33.7822 18.8643C33.897 18.7102 34.0337 18.5736 34.1878 18.4587C36.2157 16.954 38.191 15.3721 40.3812 14.0864C42.7256 12.7074 45.0415 11.2756 47.3656 9.86008C47.4212 9.81982 47.4681 9.76878 47.5035 9.71001V9.71001Z" fill="#3D7CFF"/>
<path d="M20.5071 10.6551L14.6908 10.9268C11.1296 11.1012 7.5604 11.0607 4.00331 11.4135C3.03274 11.4801 2.05942 11.4977 1.08707 11.4663C0.82973 11.4687 0.574971 11.4147 0.340759 11.3081C0.188352 11.1998 0.0780199 11.0422 0.0284408 10.8619C0.00780667 10.735 0.0276691 10.6048 0.0851808 10.4898C0.142692 10.3747 0.234951 10.2807 0.348878 10.2211C0.597008 10.1514 0.850822 10.1039 1.10734 10.0791C3.94652 9.92093 6.7857 9.75869 9.64922 9.61673C12.1112 9.49505 14.5732 9.43016 17.0311 9.27198C19.2335 9.13407 21.4278 9.00023 23.6342 9.00023C25.6622 9.00023 27.6537 8.93533 29.6654 8.89477C31.0931 8.86232 32.5046 8.77309 33.9404 8.79337C36.013 8.82582 38.0856 8.93128 40.1582 9.02051C40.3502 9.04813 40.5357 9.10995 40.7058 9.20302C40.8361 9.29804 40.9367 9.42827 40.9956 9.57842C41.0545 9.72858 41.0694 9.89242 41.0384 10.0507C41.0201 10.1797 40.9629 10.3 40.8745 10.3956C40.7861 10.4913 40.6707 10.5577 40.5436 10.5861C40.2266 10.6442 39.9043 10.6673 39.5823 10.6551C36.1469 10.4158 32.7115 10.5496 29.2761 10.5618C26.3598 10.5618 23.4395 10.5618 20.5233 10.5618V10.6348L20.5071 10.6551Z" fill="#3D7CFF"/>
</g>
<defs>
<clipPath id="clip0">
<rect width="50.4198" height="20" fill="white"/>
</clipPath>
</defs>
</svg>
